<mxfile host="Electron" agent="Mozilla/5.0 (Windows NT 10.0; Win64; x64) AppleWebKit/537.36 (KHTML, like Gecko) draw.io/26.0.4 Chrome/128.0.6613.186 Electron/32.2.5 Safari/537.36" version="26.0.4">
  <diagram name="Страница — 1" id="LDmB1OvMdF-QmFk6Qm8B">
    <mxGraphModel dx="1434" dy="836" grid="1" gridSize="10" guides="1" tooltips="1" connect="1" arrows="1" fold="1" page="1" pageScale="1" pageWidth="2336" pageHeight="1654" math="0" shadow="0">
      <root>
        <mxCell id="0" />
        <mxCell id="1" parent="0" />
        <mxCell id="rLfAB2LgZrqo5nBIkiLM-33" value="" style="rounded=0;whiteSpace=wrap;html=1;" vertex="1" parent="1">
          <mxGeometry x="120" y="100" width="640" height="150" as="geometry" />
        </mxCell>
        <mxCell id="U7CLlOOGwDEL3iCLRZDy-5" value="Администратор" style="shape=umlActor;verticalLabelPosition=bottom;verticalAlign=top;html=1;outlineConnect=0;" parent="1" vertex="1">
          <mxGeometry x="403.75" y="350" width="30" height="60" as="geometry" />
        </mxCell>
        <mxCell id="rLfAB2LgZrqo5nBIkiLM-23" value="Библиотекарь" style="shape=umlActor;verticalLabelPosition=bottom;verticalAlign=top;html=1;outlineConnect=0;" vertex="1" parent="1">
          <mxGeometry x="250" y="500" width="30" height="60" as="geometry" />
        </mxCell>
        <mxCell id="rLfAB2LgZrqo5nBIkiLM-24" value="Стажёр" style="shape=umlActor;verticalLabelPosition=bottom;verticalAlign=top;html=1;outlineConnect=0;" vertex="1" parent="1">
          <mxGeometry x="190" y="680" width="30" height="60" as="geometry" />
        </mxCell>
        <mxCell id="rLfAB2LgZrqo5nBIkiLM-25" value="Пользователь с подтверждённой регистрацией" style="shape=umlActor;verticalLabelPosition=bottom;verticalAlign=top;html=1;outlineConnect=0;" vertex="1" parent="1">
          <mxGeometry x="510" y="500" width="30" height="60" as="geometry" />
        </mxCell>
        <mxCell id="rLfAB2LgZrqo5nBIkiLM-26" value="Пользователь с не подтвеждённой регистрацией" style="shape=umlActor;verticalLabelPosition=bottom;verticalAlign=top;html=1;outlineConnect=0;" vertex="1" parent="1">
          <mxGeometry x="610" y="660" width="30" height="60" as="geometry" />
        </mxCell>
        <mxCell id="rLfAB2LgZrqo5nBIkiLM-27" value="Незарегистрированный пользователь" style="shape=umlActor;verticalLabelPosition=bottom;verticalAlign=top;html=1;outlineConnect=0;" vertex="1" parent="1">
          <mxGeometry x="700" y="820" width="30" height="60" as="geometry" />
        </mxCell>
        <mxCell id="rLfAB2LgZrqo5nBIkiLM-28" value="Просмотр настроек" style="ellipse;whiteSpace=wrap;html=1;" vertex="1" parent="1">
          <mxGeometry x="150" y="150" width="120" height="80" as="geometry" />
        </mxCell>
        <mxCell id="rLfAB2LgZrqo5nBIkiLM-30" value="Изменение настроек" style="ellipse;whiteSpace=wrap;html=1;" vertex="1" parent="1">
          <mxGeometry x="450" y="150" width="120" height="80" as="geometry" />
        </mxCell>
        <mxCell id="rLfAB2LgZrqo5nBIkiLM-31" value="Добавление настроек" style="ellipse;whiteSpace=wrap;html=1;" vertex="1" parent="1">
          <mxGeometry x="300" y="150" width="120" height="80" as="geometry" />
        </mxCell>
        <mxCell id="rLfAB2LgZrqo5nBIkiLM-32" value="Удаление настроек" style="ellipse;whiteSpace=wrap;html=1;" vertex="1" parent="1">
          <mxGeometry x="600" y="150" width="120" height="80" as="geometry" />
        </mxCell>
        <mxCell id="rLfAB2LgZrqo5nBIkiLM-34" value="Работа с настройками системы" style="text;html=1;align=center;verticalAlign=middle;whiteSpace=wrap;rounded=0;fontStyle=1" vertex="1" parent="1">
          <mxGeometry x="340" y="100" width="220" height="30" as="geometry" />
        </mxCell>
        <mxCell id="rLfAB2LgZrqo5nBIkiLM-35" value="" style="endArrow=classic;html=1;rounded=0;dashed=1;" edge="1" parent="1">
          <mxGeometry width="50" height="50" relative="1" as="geometry">
            <mxPoint x="260" y="590" as="sourcePoint" />
            <mxPoint x="210" y="670" as="targetPoint" />
          </mxGeometry>
        </mxCell>
        <mxCell id="rLfAB2LgZrqo5nBIkiLM-36" value="" style="endArrow=classic;html=1;rounded=0;dashed=1;" edge="1" parent="1">
          <mxGeometry width="50" height="50" relative="1" as="geometry">
            <mxPoint x="370" y="440" as="sourcePoint" />
            <mxPoint x="290" y="490" as="targetPoint" />
          </mxGeometry>
        </mxCell>
        <mxCell id="rLfAB2LgZrqo5nBIkiLM-37" value="" style="endArrow=classic;html=1;rounded=0;dashed=1;" edge="1" parent="1">
          <mxGeometry width="50" height="50" relative="1" as="geometry">
            <mxPoint x="460" y="440" as="sourcePoint" />
            <mxPoint x="500" y="490" as="targetPoint" />
          </mxGeometry>
        </mxCell>
        <mxCell id="rLfAB2LgZrqo5nBIkiLM-38" value="" style="endArrow=classic;html=1;rounded=0;dashed=1;" edge="1" parent="1">
          <mxGeometry width="50" height="50" relative="1" as="geometry">
            <mxPoint x="540" y="590" as="sourcePoint" />
            <mxPoint x="620" y="650" as="targetPoint" />
          </mxGeometry>
        </mxCell>
        <mxCell id="rLfAB2LgZrqo5nBIkiLM-39" value="" style="endArrow=classic;html=1;rounded=0;dashed=1;" edge="1" parent="1">
          <mxGeometry width="50" height="50" relative="1" as="geometry">
            <mxPoint x="640" y="750" as="sourcePoint" />
            <mxPoint x="700" y="800" as="targetPoint" />
          </mxGeometry>
        </mxCell>
        <mxCell id="rLfAB2LgZrqo5nBIkiLM-40" value="&amp;lt;&amp;lt;включает&amp;gt;&amp;gt;" style="text;html=1;align=center;verticalAlign=middle;whiteSpace=wrap;rounded=0;" vertex="1" parent="1">
          <mxGeometry x="270" y="440" width="60" height="30" as="geometry" />
        </mxCell>
        <mxCell id="rLfAB2LgZrqo5nBIkiLM-41" value="&amp;lt;&amp;lt;включает&amp;gt;&amp;gt;" style="text;html=1;align=center;verticalAlign=middle;whiteSpace=wrap;rounded=0;" vertex="1" parent="1">
          <mxGeometry x="175" y="610" width="60" height="30" as="geometry" />
        </mxCell>
        <mxCell id="rLfAB2LgZrqo5nBIkiLM-42" value="&amp;lt;&amp;lt;включает&amp;gt;&amp;gt;" style="text;html=1;align=center;verticalAlign=middle;whiteSpace=wrap;rounded=0;" vertex="1" parent="1">
          <mxGeometry x="480" y="440" width="60" height="30" as="geometry" />
        </mxCell>
        <mxCell id="rLfAB2LgZrqo5nBIkiLM-43" value="&amp;lt;&amp;lt;включает&amp;gt;&amp;gt;" style="text;html=1;align=center;verticalAlign=middle;whiteSpace=wrap;rounded=0;" vertex="1" parent="1">
          <mxGeometry x="590" y="600" width="60" height="30" as="geometry" />
        </mxCell>
        <mxCell id="rLfAB2LgZrqo5nBIkiLM-44" value="&amp;lt;&amp;lt;включает&amp;gt;&amp;gt;" style="text;html=1;align=center;verticalAlign=middle;whiteSpace=wrap;rounded=0;" vertex="1" parent="1">
          <mxGeometry x="670" y="752" width="60" height="30" as="geometry" />
        </mxCell>
        <mxCell id="rLfAB2LgZrqo5nBIkiLM-45" value="" style="endArrow=classic;html=1;rounded=0;entryX=0.5;entryY=1;entryDx=0;entryDy=0;" edge="1" parent="1" target="rLfAB2LgZrqo5nBIkiLM-33">
          <mxGeometry width="50" height="50" relative="1" as="geometry">
            <mxPoint x="420" y="330" as="sourcePoint" />
            <mxPoint x="460" y="510" as="targetPoint" />
          </mxGeometry>
        </mxCell>
      </root>
    </mxGraphModel>
  </diagram>
</mxfile>
